<svg xmlns="http://www.w3.org/2000/svg" version="1.1" xmlns:xlink="http://www.w3.org/1999/xlink" width="1000" height="1000"><style>
    #light-icon {
      display: inline;
    }
    #dark-icon {
      display: none;
    }

    @media (prefers-color-scheme: dark) {
      #light-icon {
        display: none;
      }
      #dark-icon {
        display: inline;
      }
    }
  </style><g id="light-icon"><svg xmlns="http://www.w3.org/2000/svg" version="1.1" xmlns:xlink="http://www.w3.org/1999/xlink" width="1000" height="1000"><g><g transform="matrix(11.723329425556859,0,0,11.723329425556859,96.54161781946073,0)"><svg xmlns="http://www.w3.org/2000/svg" version="1.1" xmlns:dc="http://purl.org/dc/elements/1.1/" xmlns:cc="http://creativecommons.org/ns#" xmlns:rdf="http://www.w3.org/1999/02/22-rdf-syntax-ns#" xmlns:svg="http://www.w3.org/2000/svg" id="svg8" viewBox="73.92 114.18 68.83 85.3" width="68.83" height="85.3"><defs id="defs2"></defs><metadata id="metadata5">
    <rdf:rdf>
      <cc:work rdf:about="">
        <dc:format>image/svg+xml</dc:format>
        <dc:type rdf:resource="http://purl.org/dc/dcmitype/StillImage"></dc:type>
        <dc:title></dc:title>
      </cc:work>
    </rdf:rdf>
  </metadata><g id="layer1">
    <g transform="matrix(2.0972213,0,0,2.0972213,17.994362,-30.201374)" id="layer1-4">
      <path style="opacity: 1; fill: rgb(255, 0, 0); fill-opacity: 1; stroke: none; stroke-width: 0.178411px; --darkreader-inline-fill: var(--darkreader-text-ff0000, #ff1a1a); --darkreader-inline-stroke: none;" d="m 52.434778,106.56635 c -7.75042,5.21041 -17.79829,3.37291 -22.96308,-4.40826 -6.06125,-9.131778 -1.67808,-20.487198 7.56066,-24.025048 0.32589,-0.12481 0.66524,-0.21448 1.09576,-0.35157 0,1.29386 0.0378,2.47974 -0.0309,3.65944 -0.0143,0.24541 -0.38231,0.54563 -0.65619,0.68921 -3.97577,2.0842 -6.36518,5.31798 -6.81283,9.79254 -0.87112,8.707648 7.19679,15.512358 15.6563,13.287158 5.05754,-1.33034 8.81088,-5.669678 9.31261,-10.766548 0.50887,-5.16941 -2.2582,-10.08317 -7.01009,-12.3744 -0.50755,-0.24472 -0.6913,-0.50554 -0.66393,-1.06421 0.0506,-1.03414 0.0145,-2.07255 0.0145,-3.11996 3.94549,0.72274 9.20919,4.71483 10.99199,11.13163 1.77485,6.38815 -0.81423,13.533888 -6.49483,17.550018 z" id="path4784" data-darkreader-inline-fill="" data-darkreader-inline-stroke=""></path>
      <path id="path4790" d="m 35.394142,95.198612 v -3.80099 h 5.85039 c 0.007,-6.896647 -0.01192,-13.794056 0.0044,-20.690227 -0.01449,-1.324277 1.564564,-2.285686 2.725396,-1.633438 0.985257,0.353984 1.169609,1.496006 1.085441,2.408831 -0.0084,6.607693 0.0051,13.315615 0.0012,19.92331 l 5.98266,-0.0167 v 3.747178 z" style="opacity: 1; fill: rgb(0, 0, 0); fill-opacity: 1; stroke: none; stroke-width: 0.178411px; --darkreader-inline-fill: var(--darkreader-text-000000, #e8e6e3); --darkreader-inline-stroke: none;" data-darkreader-inline-fill="" data-darkreader-inline-stroke=""></path>
    </g>
  </g></svg></g></g></svg></g><g id="dark-icon"><svg xmlns="http://www.w3.org/2000/svg" version="1.1" xmlns:xlink="http://www.w3.org/1999/xlink" width="1000" height="1000"><g><g transform="matrix(11.723329425556859,0,0,11.723329425556859,96.54161781946073,0)"><svg xmlns="http://www.w3.org/2000/svg" version="1.1" xmlns:dc="http://purl.org/dc/elements/1.1/" xmlns:cc="http://creativecommons.org/ns#" xmlns:rdf="http://www.w3.org/1999/02/22-rdf-syntax-ns#" xmlns:svg="http://www.w3.org/2000/svg" id="svg8" viewBox="73.92 114.18 68.83 85.3" width="68.83" height="85.3"><defs id="defs2"></defs><metadata id="metadata5">
    <rdf:rdf>
      <cc:work rdf:about="">
        <dc:format>image/svg+xml</dc:format>
        <dc:type rdf:resource="http://purl.org/dc/dcmitype/StillImage"></dc:type>
        <dc:title></dc:title>
      </cc:work>
    </rdf:rdf>
  </metadata><g id="layer1">
    <g transform="matrix(2.0972213,0,0,2.0972213,17.994362,-30.201374)" id="layer1-4">
      <path style="opacity: 1; fill: rgb(255, 0, 0); fill-opacity: 1; stroke: none; stroke-width: 0.178411px; --darkreader-inline-fill: var(--darkreader-text-ff0000, #ff1a1a); --darkreader-inline-stroke: none;" d="m 52.434778,106.56635 c -7.75042,5.21041 -17.79829,3.37291 -22.96308,-4.40826 -6.06125,-9.131778 -1.67808,-20.487198 7.56066,-24.025048 0.32589,-0.12481 0.66524,-0.21448 1.09576,-0.35157 0,1.29386 0.0378,2.47974 -0.0309,3.65944 -0.0143,0.24541 -0.38231,0.54563 -0.65619,0.68921 -3.97577,2.0842 -6.36518,5.31798 -6.81283,9.79254 -0.87112,8.707648 7.19679,15.512358 15.6563,13.287158 5.05754,-1.33034 8.81088,-5.669678 9.31261,-10.766548 0.50887,-5.16941 -2.2582,-10.08317 -7.01009,-12.3744 -0.50755,-0.24472 -0.6913,-0.50554 -0.66393,-1.06421 0.0506,-1.03414 0.0145,-2.07255 0.0145,-3.11996 3.94549,0.72274 9.20919,4.71483 10.99199,11.13163 1.77485,6.38815 -0.81423,13.533888 -6.49483,17.550018 z" id="path4784" data-darkreader-inline-fill="" data-darkreader-inline-stroke=""></path>
      <path id="path4790" d="m 35.394142,95.198612 v -3.80099 h 5.85039 c 0.007,-6.896647 -0.01192,-13.794056 0.0044,-20.690227 -0.01449,-1.324277 1.564564,-2.285686 2.725396,-1.633438 0.985257,0.353984 1.169609,1.496006 1.085441,2.408831 -0.0084,6.607693 0.0051,13.315615 0.0012,19.92331 l 5.98266,-0.0167 v 3.747178 z" style="opacity: 1; fill: rgb(255, 255, 255); fill-opacity: 1; stroke: none; stroke-width: 0.178411px; --darkreader-inline-fill: var(--darkreader-text-ffffff, #e8e6e3); --darkreader-inline-stroke: none;" data-darkreader-inline-fill="" data-darkreader-inline-stroke=""></path>
    </g>
  </g></svg></g></g></svg></g></svg>